<svg xmlns="http://www.w3.org/2000/svg" viewBox="0 0 820 308" width="820" height="308" font-family="'Segoe UI', system-ui, -apple-system, Roboto, Helvetica, Arial, sans-serif">
  <defs><linearGradient id="bar" x1="0" y1="0" x2="1" y2="0"><stop offset="0" stop-color="#1f6feb"/><stop offset="0.5" stop-color="#388bfd"/><stop offset="1" stop-color="#7c3aed"/></linearGradient></defs>
  <style>
    .title{fill:#f0f6fc;font-size:20px;font-weight:700}
    .sub{fill:#8b949e;font-size:12px}
    .statn{fill:#58a6ff;font-size:24px;font-weight:800}
    .statl{fill:#8b949e;font-size:11px}
    .mon{fill:#8b949e;font-size:10px}
    .wd{fill:#8b949e;font-size:9px}
  </style>
  <rect x="0" y="0" width="820" height="308" rx="14" fill="#0d1117"/>
  <rect x="6" y="6" width="808" height="296" rx="12" fill="#161b22" stroke="#30363d"/>
  <rect x="6" y="6" width="808" height="6" rx="3" fill="url(#bar)"/>
  <text x="24" y="42" class="title">GitHub Activity</text>
  <text x="796" y="42" class="sub" text-anchor="end">@ndh0408 · last 12 months</text>
  <g><rect x="24" y="66" width="148" height="66" rx="10" fill="#0d1117" stroke="#30363d"/><text x="98" y="98" class="statn" text-anchor="middle">527</text><text x="98" y="117" class="statl" text-anchor="middle">Contributions</text></g><g><rect x="180" y="66" width="148" height="66" rx="10" fill="#0d1117" stroke="#30363d"/><text x="254" y="98" class="statn" text-anchor="middle">514</text><text x="254" y="117" class="statl" text-anchor="middle">Commits</text></g><g><rect x="336" y="66" width="148" height="66" rx="10" fill="#0d1117" stroke="#30363d"/><text x="410" y="98" class="statn" text-anchor="middle">7</text><text x="410" y="117" class="statl" text-anchor="middle">Pull Requests</text></g><g><rect x="492" y="66" width="148" height="66" rx="10" fill="#0d1117" stroke="#30363d"/><text x="566" y="98" class="statn" text-anchor="middle">6</text><text x="566" y="117" class="statl" text-anchor="middle">Public repos</text></g><g><rect x="648" y="66" width="148" height="66" rx="10" fill="#0d1117" stroke="#30363d"/><text x="722" y="98" class="statn" text-anchor="middle">2022</text><text x="722" y="117" class="statl" text-anchor="middle">Member since</text></g><text x="60" y="162" class="mon">Jul</text><text x="116" y="162" class="mon">Aug</text><text x="186" y="162" class="mon">Sep</text><text x="242" y="162" class="mon">Oct</text><text x="298" y="162" class="mon">Nov</text><text x="368" y="162" class="mon">Dec</text><text x="424" y="162" class="mon">Jan</text><text x="480" y="162" class="mon">Feb</text><text x="536" y="162" class="mon">Mar</text><text x="606" y="162" class="mon">Apr</text><text x="662" y="162" class="mon">May</text><text x="732" y="162" class="mon">Jun</text><text x="788" y="162" class="mon">Jul</text><text x="50" y="194" class="wd" text-anchor="end">Mon</text><text x="50" y="222" class="wd" text-anchor="end">Wed</text><text x="50" y="250" class="wd" text-anchor="end">Fri</text><rect x="60" y="170" width="11" height="11" rx="2" fill="#161b22"/><rect x="60" y="184" width="11" height="11" rx="2" fill="#161b22"/><rect x="60" y="198" width="11" height="11" rx="2" fill="#161b22"/><rect x="60" y="212" width="11" height="11" rx="2" fill="#161b22"/><rect x="60" y="226" width="11" height="11" rx="2" fill="#161b22"/><rect x="60" y="240" width="11" height="11" rx="2" fill="#161b22"/><rect x="60" y="254" width="11" height="11" rx="2" fill="#161b22"/><rect x="74" y="170" width="11" height="11" rx="2" fill="#161b22"/><rect x="74" y="184" width="11" height="11" rx="2" fill="#161b22"/><rect x="74" y="198" width="11" height="11" rx="2" fill="#161b22"/><rect x="74" y="212" width="11" height="11" rx="2" fill="#161b22"/><rect x="74" y="226" width="11" height="11" rx="2" fill="#161b22"/><rect x="74" y="240" width="11" height="11" rx="2" fill="#161b22"/><rect x="74" y="254" width="11" height="11" rx="2" fill="#161b22"/><rect x="88" y="170" width="11" height="11" rx="2" fill="#161b22"/><rect x="88" y="184" width="11" height="11" rx="2" fill="#161b22"/><rect x="88" y="198" width="11" height="11" rx="2" fill="#161b22"/><rect x="88" y="212" width="11" height="11" rx="2" fill="#161b22"/><rect x="88" y="226" width="11" height="11" rx="2" fill="#161b22"/><rect x="88" y="240" width="11" height="11" rx="2" fill="#161b22"/><rect x="88" y="254" width="11" height="11" rx="2" fill="#161b22"/><rect x="102" y="170" width="11" height="11" rx="2" fill="#161b22"/><rect x="102" y="184" width="11" height="11" rx="2" fill="#161b22"/><rect x="102" y="198" width="11" height="11" rx="2" fill="#161b22"/><rect x="102" y="212" width="11" height="11" rx="2" fill="#161b22"/><rect x="102" y="226" width="11" height="11" rx="2" fill="#161b22"/><rect x="102" y="240" width="11" height="11" rx="2" fill="#161b22"/><rect x="102" y="254" width="11" height="11" rx="2" fill="#161b22"/><rect x="116" y="170" width="11" height="11" rx="2" fill="#161b22"/><rect x="116" y="184" width="11" height="11" rx="2" fill="#161b22"/><rect x="116" y="198" width="11" height="11" rx="2" fill="#161b22"/><rect x="116" y="212" width="11" height="11" rx="2" fill="#161b22"/><rect x="116" y="226" width="11" height="11" rx="2" fill="#161b22"/><rect x="116" y="240" width="11" height="11" rx="2" fill="#161b22"/><rect x="116" y="254" width="11" height="11" rx="2" fill="#161b22"/><rect x="130" y="170" width="11" height="11" rx="2" fill="#161b22"/><rect x="130" y="184" width="11" height="11" rx="2" fill="#161b22"/><rect x="130" y="198" width="11" height="11" rx="2" fill="#161b22"/><rect x="130" y="212" width="11" height="11" rx="2" fill="#161b22"/><rect x="130" y="226" width="11" height="11" rx="2" fill="#161b22"/><rect x="130" y="240" width="11" height="11" rx="2" fill="#161b22"/><rect x="130" y="254" width="11" height="11" rx="2" fill="#161b22"/><rect x="144" y="170" width="11" height="11" rx="2" fill="#161b22"/><rect x="144" y="184" width="11" height="11" rx="2" fill="#161b22"/><rect x="144" y="198" width="11" height="11" rx="2" fill="#161b22"/><rect x="144" y="212" width="11" height="11" rx="2" fill="#161b22"/><rect x="144" y="226" width="11" height="11" rx="2" fill="#161b22"/><rect x="144" y="240" width="11" height="11" rx="2" fill="#161b22"/><rect x="144" y="254" width="11" height="11" rx="2" fill="#161b22"/><rect x="158" y="170" width="11" height="11" rx="2" fill="#161b22"/><rect x="158" y="184" width="11" height="11" rx="2" fill="#161b22"/><rect x="158" y="198" width="11" height="11" rx="2" fill="#161b22"/><rect x="158" y="212" width="11" height="11" rx="2" fill="#161b22"/><rect x="158" y="226" width="11" height="11" rx="2" fill="#161b22"/><rect x="158" y="240" width="11" height="11" rx="2" fill="#161b22"/><rect x="158" y="254" width="11" height="11" rx="2" fill="#161b22"/><rect x="172" y="170" width="11" height="11" rx="2" fill="#161b22"/><rect x="172" y="184" width="11" height="11" rx="2" fill="#161b22"/><rect x="172" y="198" width="11" height="11" rx="2" fill="#161b22"/><rect x="172" y="212" width="11" height="11" rx="2" fill="#161b22"/><rect x="172" y="226" width="11" height="11" rx="2" fill="#161b22"/><rect x="172" y="240" width="11" height="11" rx="2" fill="#161b22"/><rect x="172" y="254" width="11" height="11" rx="2" fill="#161b22"/><rect x="186" y="170" width="11" height="11" rx="2" fill="#161b22"/><rect x="186" y="184" width="11" height="11" rx="2" fill="#161b22"/><rect x="186" y="198" width="11" height="11" rx="2" fill="#161b22"/><rect x="186" y="212" width="11" height="11" rx="2" fill="#161b22"/><rect x="186" y="226" width="11" height="11" rx="2" fill="#161b22"/><rect x="186" y="240" width="11" height="11" rx="2" fill="#161b22"/><rect x="186" y="254" width="11" height="11" rx="2" fill="#161b22"/><rect x="200" y="170" width="11" height="11" rx="2" fill="#161b22"/><rect x="200" y="184" width="11" height="11" rx="2" fill="#161b22"/><rect x="200" y="198" width="11" height="11" rx="2" fill="#161b22"/><rect x="200" y="212" width="11" height="11" rx="2" fill="#161b22"/><rect x="200" y="226" width="11" height="11" rx="2" fill="#161b22"/><rect x="200" y="240" width="11" height="11" rx="2" fill="#161b22"/><rect x="200" y="254" width="11" height="11" rx="2" fill="#161b22"/><rect x="214" y="170" width="11" height="11" rx="2" fill="#161b22"/><rect x="214" y="184" width="11" height="11" rx="2" fill="#161b22"/><rect x="214" y="198" width="11" height="11" rx="2" fill="#161b22"/><rect x="214" y="212" width="11" height="11" rx="2" fill="#161b22"/><rect x="214" y="226" width="11" height="11" rx="2" fill="#161b22"/><rect x="214" y="240" width="11" height="11" rx="2" fill="#161b22"/><rect x="214" y="254" width="11" height="11" rx="2" fill="#161b22"/><rect x="228" y="170" width="11" height="11" rx="2" fill="#161b22"/><rect x="228" y="184" width="11" height="11" rx="2" fill="#161b22"/><rect x="228" y="198" width="11" height="11" rx="2" fill="#161b22"/><rect x="228" y="212" width="11" height="11" rx="2" fill="#161b22"/><rect x="228" y="226" width="11" height="11" rx="2" fill="#161b22"/><rect x="228" y="240" width="11" height="11" rx="2" fill="#161b22"/><rect x="228" y="254" width="11" height="11" rx="2" fill="#161b22"/><rect x="242" y="170" width="11" height="11" rx="2" fill="#161b22"/><rect x="242" y="184" width="11" height="11" rx="2" fill="#161b22"/><rect x="242" y="198" width="11" height="11" rx="2" fill="#161b22"/><rect x="242" y="212" width="11" height="11" rx="2" fill="#161b22"/><rect x="242" y="226" width="11" height="11" rx="2" fill="#161b22"/><rect x="242" y="240" width="11" height="11" rx="2" fill="#161b22"/><rect x="242" y="254" width="11" height="11" rx="2" fill="#161b22"/><rect x="256" y="170" width="11" height="11" rx="2" fill="#161b22"/><rect x="256" y="184" width="11" height="11" rx="2" fill="#161b22"/><rect x="256" y="198" width="11" height="11" rx="2" fill="#161b22"/><rect x="256" y="212" width="11" height="11" rx="2" fill="#161b22"/><rect x="256" y="226" width="11" height="11" rx="2" fill="#161b22"/><rect x="256" y="240" width="11" height="11" rx="2" fill="#161b22"/><rect x="256" y="254" width="11" height="11" rx="2" fill="#161b22"/><rect x="270" y="170" width="11" height="11" rx="2" fill="#161b22"/><rect x="270" y="184" width="11" height="11" rx="2" fill="#161b22"/><rect x="270" y="198" width="11" height="11" rx="2" fill="#161b22"/><rect x="270" y="212" width="11" height="11" rx="2" fill="#161b22"/><rect x="270" y="226" width="11" height="11" rx="2" fill="#161b22"/><rect x="270" y="240" width="11" height="11" rx="2" fill="#161b22"/><rect x="270" y="254" width="11" height="11" rx="2" fill="#161b22"/><rect x="284" y="170" width="11" height="11" rx="2" fill="#161b22"/><rect x="284" y="184" width="11" height="11" rx="2" fill="#161b22"/><rect x="284" y="198" width="11" height="11" rx="2" fill="#161b22"/><rect x="284" y="212" width="11" height="11" rx="2" fill="#161b22"/><rect x="284" y="226" width="11" height="11" rx="2" fill="#161b22"/><rect x="284" y="240" width="11" height="11" rx="2" fill="#161b22"/><rect x="284" y="254" width="11" height="11" rx="2" fill="#161b22"/><rect x="298" y="170" width="11" height="11" rx="2" fill="#161b22"/><rect x="298" y="184" width="11" height="11" rx="2" fill="#161b22"/><rect x="298" y="198" width="11" height="11" rx="2" fill="#161b22"/><rect x="298" y="212" width="11" height="11" rx="2" fill="#161b22"/><rect x="298" y="226" width="11" height="11" rx="2" fill="#161b22"/><rect x="298" y="240" width="11" height="11" rx="2" fill="#161b22"/><rect x="298" y="254" width="11" height="11" rx="2" fill="#161b22"/><rect x="312" y="170" width="11" height="11" rx="2" fill="#161b22"/><rect x="312" y="184" width="11" height="11" rx="2" fill="#161b22"/><rect x="312" y="198" width="11" height="11" rx="2" fill="#161b22"/><rect x="312" y="212" width="11" height="11" rx="2" fill="#161b22"/><rect x="312" y="226" width="11" height="11" rx="2" fill="#161b22"/><rect x="312" y="240" width="11" height="11" rx="2" fill="#161b22"/><rect x="312" y="254" width="11" height="11" rx="2" fill="#161b22"/><rect x="326" y="170" width="11" height="11" rx="2" fill="#161b22"/><rect x="326" y="184" width="11" height="11" rx="2" fill="#161b22"/><rect x="326" y="198" width="11" height="11" rx="2" fill="#161b22"/><rect x="326" y="212" width="11" height="11" rx="2" fill="#161b22"/><rect x="326" y="226" width="11" height="11" rx="2" fill="#161b22"/><rect x="326" y="240" width="11" height="11" rx="2" fill="#161b22"/><rect x="326" y="254" width="11" height="11" rx="2" fill="#161b22"/><rect x="340" y="170" width="11" height="11" rx="2" fill="#161b22"/><rect x="340" y="184" width="11" height="11" rx="2" fill="#161b22"/><rect x="340" y="198" width="11" height="11" rx="2" fill="#161b22"/><rect x="340" y="212" width="11" height="11" rx="2" fill="#161b22"/><rect x="340" y="226" width="11" height="11" rx="2" fill="#161b22"/><rect x="340" y="240" width="11" height="11" rx="2" fill="#161b22"/><rect x="340" y="254" width="11" height="11" rx="2" fill="#161b22"/><rect x="354" y="170" width="11" height="11" rx="2" fill="#161b22"/><rect x="354" y="184" width="11" height="11" rx="2" fill="#161b22"/><rect x="354" y="198" width="11" height="11" rx="2" fill="#161b22"/><rect x="354" y="212" width="11" height="11" rx="2" fill="#161b22"/><rect x="354" y="226" width="11" height="11" rx="2" fill="#161b22"/><rect x="354" y="240" width="11" height="11" rx="2" fill="#161b22"/><rect x="354" y="254" width="11" height="11" rx="2" fill="#161b22"/><rect x="368" y="170" width="11" height="11" rx="2" fill="#161b22"/><rect x="368" y="184" width="11" height="11" rx="2" fill="#161b22"/><rect x="368" y="198" width="11" height="11" rx="2" fill="#161b22"/><rect x="368" y="212" width="11" height="11" rx="2" fill="#161b22"/><rect x="368" y="226" width="11" height="11" rx="2" fill="#161b22"/><rect x="368" y="240" width="11" height="11" rx="2" fill="#161b22"/><rect x="368" y="254" width="11" height="11" rx="2" fill="#161b22"/><rect x="382" y="170" width="11" height="11" rx="2" fill="#161b22"/><rect x="382" y="184" width="11" height="11" rx="2" fill="#161b22"/><rect x="382" y="198" width="11" height="11" rx="2" fill="#161b22"/><rect x="382" y="212" width="11" height="11" rx="2" fill="#161b22"/><rect x="382" y="226" width="11" height="11" rx="2" fill="#161b22"/><rect x="382" y="240" width="11" height="11" rx="2" fill="#161b22"/><rect x="382" y="254" width="11" height="11" rx="2" fill="#161b22"/><rect x="396" y="170" width="11" height="11" rx="2" fill="#161b22"/><rect x="396" y="184" width="11" height="11" rx="2" fill="#161b22"/><rect x="396" y="198" width="11" height="11" rx="2" fill="#161b22"/><rect x="396" y="212" width="11" height="11" rx="2" fill="#161b22"/><rect x="396" y="226" width="11" height="11" rx="2" fill="#161b22"/><rect x="396" y="240" width="11" height="11" rx="2" fill="#161b22"/><rect x="396" y="254" width="11" height="11" rx="2" fill="#161b22"/><rect x="410" y="170" width="11" height="11" rx="2" fill="#161b22"/><rect x="410" y="184" width="11" height="11" rx="2" fill="#161b22"/><rect x="410" y="198" width="11" height="11" rx="2" fill="#161b22"/><rect x="410" y="212" width="11" height="11" rx="2" fill="#161b22"/><rect x="410" y="226" width="11" height="11" rx="2" fill="#161b22"/><rect x="410" y="240" width="11" height="11" rx="2" fill="#161b22"/><rect x="410" y="254" width="11" height="11" rx="2" fill="#161b22"/><rect x="424" y="170" width="11" height="11" rx="2" fill="#161b22"/><rect x="424" y="184" width="11" height="11" rx="2" fill="#161b22"/><rect x="424" y="198" width="11" height="11" rx="2" fill="#161b22"/><rect x="424" y="212" width="11" height="11" rx="2" fill="#161b22"/><rect x="424" y="226" width="11" height="11" rx="2" fill="#161b22"/><rect x="424" y="240" width="11" height="11" rx="2" fill="#161b22"/><rect x="424" y="254" width="11" height="11" rx="2" fill="#161b22"/><rect x="438" y="170" width="11" height="11" rx="2" fill="#161b22"/><rect x="438" y="184" width="11" height="11" rx="2" fill="#161b22"/><rect x="438" y="198" width="11" height="11" rx="2" fill="#161b22"/><rect x="438" y="212" width="11" height="11" rx="2" fill="#161b22"/><rect x="438" y="226" width="11" height="11" rx="2" fill="#161b22"/><rect x="438" y="240" width="11" height="11" rx="2" fill="#161b22"/><rect x="438" y="254" width="11" height="11" rx="2" fill="#161b22"/><rect x="452" y="170" width="11" height="11" rx="2" fill="#161b22"/><rect x="452" y="184" width="11" height="11" rx="2" fill="#161b22"/><rect x="452" y="198" width="11" height="11" rx="2" fill="#161b22"/><rect x="452" y="212" width="11" height="11" rx="2" fill="#161b22"/><rect x="452" y="226" width="11" height="11" rx="2" fill="#161b22"/><rect x="452" y="240" width="11" height="11" rx="2" fill="#161b22"/><rect x="452" y="254" width="11" height="11" rx="2" fill="#161b22"/><rect x="466" y="170" width="11" height="11" rx="2" fill="#161b22"/><rect x="466" y="184" width="11" height="11" rx="2" fill="#161b22"/><rect x="466" y="198" width="11" height="11" rx="2" fill="#161b22"/><rect x="466" y="212" width="11" height="11" rx="2" fill="#161b22"/><rect x="466" y="226" width="11" height="11" rx="2" fill="#161b22"/><rect x="466" y="240" width="11" height="11" rx="2" fill="#161b22"/><rect x="466" y="254" width="11" height="11" rx="2" fill="#161b22"/><rect x="480" y="170" width="11" height="11" rx="2" fill="#161b22"/><rect x="480" y="184" width="11" height="11" rx="2" fill="#161b22"/><rect x="480" y="198" width="11" height="11" rx="2" fill="#161b22"/><rect x="480" y="212" width="11" height="11" rx="2" fill="#161b22"/><rect x="480" y="226" width="11" height="11" rx="2" fill="#161b22"/><rect x="480" y="240" width="11" height="11" rx="2" fill="#161b22"/><rect x="480" y="254" width="11" height="11" rx="2" fill="#161b22"/><rect x="494" y="170" width="11" height="11" rx="2" fill="#161b22"/><rect x="494" y="184" width="11" height="11" rx="2" fill="#161b22"/><rect x="494" y="198" width="11" height="11" rx="2" fill="#161b22"/><rect x="494" y="212" width="11" height="11" rx="2" fill="#161b22"/><rect x="494" y="226" width="11" height="11" rx="2" fill="#161b22"/><rect x="494" y="240" width="11" height="11" rx="2" fill="#161b22"/><rect x="494" y="254" width="11" height="11" rx="2" fill="#161b22"/><rect x="508" y="170" width="11" height="11" rx="2" fill="#161b22"/><rect x="508" y="184" width="11" height="11" rx="2" fill="#161b22"/><rect x="508" y="198" width="11" height="11" rx="2" fill="#161b22"/><rect x="508" y="212" width="11" height="11" rx="2" fill="#161b22"/><rect x="508" y="226" width="11" height="11" rx="2" fill="#161b22"/><rect x="508" y="240" width="11" height="11" rx="2" fill="#161b22"/><rect x="508" y="254" width="11" height="11" rx="2" fill="#161b22"/><rect x="522" y="170" width="11" height="11" rx="2" fill="#161b22"/><rect x="522" y="184" width="11" height="11" rx="2" fill="#161b22"/><rect x="522" y="198" width="11" height="11" rx="2" fill="#161b22"/><rect x="522" y="212" width="11" height="11" rx="2" fill="#161b22"/><rect x="522" y="226" width="11" height="11" rx="2" fill="#161b22"/><rect x="522" y="240" width="11" height="11" rx="2" fill="#161b22"/><rect x="522" y="254" width="11" height="11" rx="2" fill="#161b22"/><rect x="536" y="170" width="11" height="11" rx="2" fill="#161b22"/><rect x="536" y="184" width="11" height="11" rx="2" fill="#161b22"/><rect x="536" y="198" width="11" height="11" rx="2" fill="#161b22"/><rect x="536" y="212" width="11" height="11" rx="2" fill="#161b22"/><rect x="536" y="226" width="11" height="11" rx="2" fill="#161b22"/><rect x="536" y="240" width="11" height="11" rx="2" fill="#161b22"/><rect x="536" y="254" width="11" height="11" rx="2" fill="#161b22"/><rect x="550" y="170" width="11" height="11" rx="2" fill="#161b22"/><rect x="550" y="184" width="11" height="11" rx="2" fill="#161b22"/><rect x="550" y="198" width="11" height="11" rx="2" fill="#161b22"/><rect x="550" y="212" width="11" height="11" rx="2" fill="#161b22"/><rect x="550" y="226" width="11" height="11" rx="2" fill="#161b22"/><rect x="550" y="240" width="11" height="11" rx="2" fill="#161b22"/><rect x="550" y="254" width="11" height="11" rx="2" fill="#161b22"/><rect x="564" y="170" width="11" height="11" rx="2" fill="#161b22"/><rect x="564" y="184" width="11" height="11" rx="2" fill="#161b22"/><rect x="564" y="198" width="11" height="11" rx="2" fill="#161b22"/><rect x="564" y="212" width="11" height="11" rx="2" fill="#161b22"/><rect x="564" y="226" width="11" height="11" rx="2" fill="#161b22"/><rect x="564" y="240" width="11" height="11" rx="2" fill="#161b22"/><rect x="564" y="254" width="11" height="11" rx="2" fill="#161b22"/><rect x="578" y="170" width="11" height="11" rx="2" fill="#161b22"/><rect x="578" y="184" width="11" height="11" rx="2" fill="#161b22"/><rect x="578" y="198" width="11" height="11" rx="2" fill="#161b22"/><rect x="578" y="212" width="11" height="11" rx="2" fill="#161b22"/><rect x="578" y="226" width="11" height="11" rx="2" fill="#2f81d6"/><rect x="578" y="240" width="11" height="11" rx="2" fill="#161b22"/><rect x="578" y="254" width="11" height="11" rx="2" fill="#161b22"/><rect x="592" y="170" width="11" height="11" rx="2" fill="#161b22"/><rect x="592" y="184" width="11" height="11" rx="2" fill="#161b22"/><rect x="592" y="198" width="11" height="11" rx="2" fill="#161b22"/><rect x="592" y="212" width="11" height="11" rx="2" fill="#161b22"/><rect x="592" y="226" width="11" height="11" rx="2" fill="#155a9c"/><rect x="592" y="240" width="11" height="11" rx="2" fill="#161b22"/><rect x="592" y="254" width="11" height="11" rx="2" fill="#161b22"/><rect x="606" y="170" width="11" height="11" rx="2" fill="#161b22"/><rect x="606" y="184" width="11" height="11" rx="2" fill="#161b22"/><rect x="606" y="198" width="11" height="11" rx="2" fill="#161b22"/><rect x="606" y="212" width="11" height="11" rx="2" fill="#161b22"/><rect x="606" y="226" width="11" height="11" rx="2" fill="#161b22"/><rect x="606" y="240" width="11" height="11" rx="2" fill="#161b22"/><rect x="606" y="254" width="11" height="11" rx="2" fill="#161b22"/><rect x="620" y="170" width="11" height="11" rx="2" fill="#161b22"/><rect x="620" y="184" width="11" height="11" rx="2" fill="#161b22"/><rect x="620" y="198" width="11" height="11" rx="2" fill="#161b22"/><rect x="620" y="212" width="11" height="11" rx="2" fill="#155a9c"/><rect x="620" y="226" width="11" height="11" rx="2" fill="#58a6ff"/><rect x="620" y="240" width="11" height="11" rx="2" fill="#58a6ff"/><rect x="620" y="254" width="11" height="11" rx="2" fill="#161b22"/><rect x="634" y="170" width="11" height="11" rx="2" fill="#2f81d6"/><rect x="634" y="184" width="11" height="11" rx="2" fill="#161b22"/><rect x="634" y="198" width="11" height="11" rx="2" fill="#58a6ff"/><rect x="634" y="212" width="11" height="11" rx="2" fill="#2f81d6"/><rect x="634" y="226" width="11" height="11" rx="2" fill="#2f81d6"/><rect x="634" y="240" width="11" height="11" rx="2" fill="#161b22"/><rect x="634" y="254" width="11" height="11" rx="2" fill="#161b22"/><rect x="648" y="170" width="11" height="11" rx="2" fill="#161b22"/><rect x="648" y="184" width="11" height="11" rx="2" fill="#161b22"/><rect x="648" y="198" width="11" height="11" rx="2" fill="#161b22"/><rect x="648" y="212" width="11" height="11" rx="2" fill="#161b22"/><rect x="648" y="226" width="11" height="11" rx="2" fill="#161b22"/><rect x="648" y="240" width="11" height="11" rx="2" fill="#161b22"/><rect x="648" y="254" width="11" height="11" rx="2" fill="#161b22"/><rect x="662" y="170" width="11" height="11" rx="2" fill="#161b22"/><rect x="662" y="184" width="11" height="11" rx="2" fill="#58a6ff"/><rect x="662" y="198" width="11" height="11" rx="2" fill="#0e3a63"/><rect x="662" y="212" width="11" height="11" rx="2" fill="#161b22"/><rect x="662" y="226" width="11" height="11" rx="2" fill="#161b22"/><rect x="662" y="240" width="11" height="11" rx="2" fill="#161b22"/><rect x="662" y="254" width="11" height="11" rx="2" fill="#161b22"/><rect x="676" y="170" width="11" height="11" rx="2" fill="#161b22"/><rect x="676" y="184" width="11" height="11" rx="2" fill="#161b22"/><rect x="676" y="198" width="11" height="11" rx="2" fill="#161b22"/><rect x="676" y="212" width="11" height="11" rx="2" fill="#0e3a63"/><rect x="676" y="226" width="11" height="11" rx="2" fill="#161b22"/><rect x="676" y="240" width="11" height="11" rx="2" fill="#161b22"/><rect x="676" y="254" width="11" height="11" rx="2" fill="#161b22"/><rect x="690" y="170" width="11" height="11" rx="2" fill="#161b22"/><rect x="690" y="184" width="11" height="11" rx="2" fill="#161b22"/><rect x="690" y="198" width="11" height="11" rx="2" fill="#161b22"/><rect x="690" y="212" width="11" height="11" rx="2" fill="#0e3a63"/><rect x="690" y="226" width="11" height="11" rx="2" fill="#0e3a63"/><rect x="690" y="240" width="11" height="11" rx="2" fill="#155a9c"/><rect x="690" y="254" width="11" height="11" rx="2" fill="#161b22"/><rect x="704" y="170" width="11" height="11" rx="2" fill="#161b22"/><rect x="704" y="184" width="11" height="11" rx="2" fill="#161b22"/><rect x="704" y="198" width="11" height="11" rx="2" fill="#58a6ff"/><rect x="704" y="212" width="11" height="11" rx="2" fill="#58a6ff"/><rect x="704" y="226" width="11" height="11" rx="2" fill="#155a9c"/><rect x="704" y="240" width="11" height="11" rx="2" fill="#2f81d6"/><rect x="704" y="254" width="11" height="11" rx="2" fill="#161b22"/><rect x="718" y="170" width="11" height="11" rx="2" fill="#155a9c"/><rect x="718" y="184" width="11" height="11" rx="2" fill="#2f81d6"/><rect x="718" y="198" width="11" height="11" rx="2" fill="#161b22"/><rect x="718" y="212" width="11" height="11" rx="2" fill="#161b22"/><rect x="718" y="226" width="11" height="11" rx="2" fill="#161b22"/><rect x="718" y="240" width="11" height="11" rx="2" fill="#161b22"/><rect x="718" y="254" width="11" height="11" rx="2" fill="#161b22"/><rect x="732" y="170" width="11" height="11" rx="2" fill="#161b22"/><rect x="732" y="184" width="11" height="11" rx="2" fill="#161b22"/><rect x="732" y="198" width="11" height="11" rx="2" fill="#161b22"/><rect x="732" y="212" width="11" height="11" rx="2" fill="#161b22"/><rect x="732" y="226" width="11" height="11" rx="2" fill="#161b22"/><rect x="732" y="240" width="11" height="11" rx="2" fill="#161b22"/><rect x="732" y="254" width="11" height="11" rx="2" fill="#2f81d6"/><rect x="746" y="170" width="11" height="11" rx="2" fill="#2f81d6"/><rect x="746" y="184" width="11" height="11" rx="2" fill="#58a6ff"/><rect x="746" y="198" width="11" height="11" rx="2" fill="#161b22"/><rect x="746" y="212" width="11" height="11" rx="2" fill="#58a6ff"/><rect x="746" y="226" width="11" height="11" rx="2" fill="#155a9c"/><rect x="746" y="240" width="11" height="11" rx="2" fill="#58a6ff"/><rect x="746" y="254" width="11" height="11" rx="2" fill="#161b22"/><rect x="760" y="170" width="11" height="11" rx="2" fill="#161b22"/><rect x="760" y="184" width="11" height="11" rx="2" fill="#58a6ff"/><rect x="760" y="198" width="11" height="11" rx="2" fill="#2f81d6"/><rect x="760" y="212" width="11" height="11" rx="2" fill="#58a6ff"/><rect x="760" y="226" width="11" height="11" rx="2" fill="#58a6ff"/><rect x="760" y="240" width="11" height="11" rx="2" fill="#58a6ff"/><rect x="760" y="254" width="11" height="11" rx="2" fill="#161b22"/><rect x="774" y="170" width="11" height="11" rx="2" fill="#161b22"/><rect x="774" y="184" width="11" height="11" rx="2" fill="#161b22"/><rect x="774" y="198" width="11" height="11" rx="2" fill="#161b22"/><rect x="774" y="212" width="11" height="11" rx="2" fill="#161b22"/><rect x="774" y="226" width="11" height="11" rx="2" fill="#161b22"/><rect x="774" y="240" width="11" height="11" rx="2" fill="#161b22"/><rect x="774" y="254" width="11" height="11" rx="2" fill="#161b22"/><rect x="788" y="170" width="11" height="11" rx="2" fill="#161b22"/><rect x="788" y="184" width="11" height="11" rx="2" fill="#155a9c"/><text x="622" y="293" class="wd" text-anchor="end">Less</text><rect x="630" y="284" width="11" height="11" rx="2" fill="#161b22"/><rect x="643" y="284" width="11" height="11" rx="2" fill="#0e3a63"/><rect x="656" y="284" width="11" height="11" rx="2" fill="#155a9c"/><rect x="669" y="284" width="11" height="11" rx="2" fill="#2f81d6"/><rect x="682" y="284" width="11" height="11" rx="2" fill="#58a6ff"/><text x="701" y="293" class="wd">More</text>
</svg>